RBDS017runT25_grf
version=1
nRows=37
nColumns=19
inDegrees=no
endheader
time	ground_force_r_vx	ground_force_r_vy	ground_force_r_vz	ground_force_r_px	ground_force_r_py	ground_force_r_pz	ground_force_r_mx	ground_force_r_my	ground_force_r_mz	ground_force_l_vx	ground_force_l_vy	ground_force_l_vz	ground_force_l_px	ground_force_l_py	ground_force_l_pz	ground_force_l_mx	ground_force_l_my	ground_force_l_mz
      0.00000000	    -28.05869263	   2011.61109517	    -38.73149396	      2.07995146	      0.00000000	      1.07289357	      0.00000000	     12.66241665	     -0.00000000	      0.00000000	      0.00000000	      0.00000000	      0.00000000	      0.00000000	      0.00000000	      0.00000000	      0.00000000	      0.00000000
      0.00100000	    -25.98513068	   2005.16983977	    -39.48247611	      2.07869333	      0.00000000	      1.07314378	      0.00000000	     12.46129535	     -0.00000000	      0.00000000	      0.00000000	      0.00000000	      0.00000000	      0.00000000	      0.00000000	      0.00000000	      0.00000000	      0.00000000
      0.00200000	    -23.91156873	   1998.72858436	    -40.23345826	      2.07743521	      0.00000000	      1.07339400	      0.00000000	     12.26017406	     -0.00000000	      0.00000000	      0.00000000	      0.00000000	      0.00000000	      0.00000000	      0.00000000	      0.00000000	      0.00000000	      0.00000000
      0.00300000	    -21.83800678	   1992.28732895	    -40.98444041	      2.07617708	      0.00000000	      1.07364422	      0.00000000	     12.05905276	     -0.00000000	      0.00000000	      0.00000000	      0.00000000	      0.00000000	      0.00000000	      0.00000000	      0.00000000	      0.00000000	      0.00000000
      0.00400000	    -19.72788713	   1985.83982049	    -41.73059951	      2.07491305	      0.00000000	      1.07389388	      0.00000000	     11.85965095	     -0.00000000	      0.00000000	      0.00000000	      0.00000000	      0.00000000	      0.00000000	      0.00000000	      0.00000000	      0.00000000	      0.00000000
      0.00500000	    -17.59948863	   1979.38918551	    -42.47434707	      2.07364606	      0.00000000	      1.07414328	      0.00000000	     11.66110888	     -0.00000000	      0.00000000	      0.00000000	      0.00000000	      0.00000000	      0.00000000	      0.00000000	      0.00000000	      0.00000000	      0.00000000
      0.00600000	    -15.47109012	   1972.93855053	    -43.21809464	      2.07237908	      0.00000000	      1.07439267	      0.00000000	     11.46256681	     -0.00000000	      0.00000000	      0.00000000	      0.00000000	      0.00000000	      0.00000000	      0.00000000	      0.00000000	      0.00000000	      0.00000000
      0.00700000	    -13.31529709	   1966.46082789	    -43.95404239	      2.07110478	      0.00000000	      1.07464108	      0.00000000	     11.26547135	     -0.00000000	      0.00000000	      0.00000000	      0.00000000	      0.00000000	      0.00000000	      0.00000000	      0.00000000	      0.00000000	      0.00000000
      0.00800000	    -11.10471499	   1959.92892995	    -44.67439049	      2.06981586	      0.00000000	      1.07488754	      0.00000000	     11.07126911	     -0.00000000	      0.00000000	      0.00000000	      0.00000000	      0.00000000	      0.00000000	      0.00000000	      0.00000000	      0.00000000	      0.00000000
      0.00900000	     -8.89413289	   1953.39703201	    -45.39473859	      2.06852694	      0.00000000	      1.07513401	      0.00000000	     10.87706688	     -0.00000000	      0.00000000	      0.00000000	      0.00000000	      0.00000000	      0.00000000	      0.00000000	      0.00000000	      0.00000000	      0.00000000
      0.01000000	     -6.68355079	   1946.86513406	    -46.11508669	      2.06723801	      0.00000000	      1.07538047	      0.00000000	     10.68286464	     -0.00000000	      0.00000000	      0.00000000	      0.00000000	      0.00000000	      0.00000000	      0.00000000	      0.00000000	      0.00000000	      0.00000000
      0.01100000	     -4.36583650	   1940.17061316	    -46.79554206	      2.06591363	      0.00000000	      1.07562187	      0.00000000	     10.49445830	     -0.00000000	      0.00000000	      0.00000000	      0.00000000	      0.00000000	      0.00000000	      0.00000000	      0.00000000	      0.00000000	      0.00000000
      0.01200000	     -2.04812221	   1933.47609225	    -47.47599742	      2.06458924	      0.00000000	      1.07586327	      0.00000000	     10.30605197	     -0.00000000	      0.00000000	      0.00000000	      0.00000000	      0.00000000	      0.00000000	      0.00000000	      0.00000000	      0.00000000	      0.00000000
      0.01300000	      0.26959208	   1926.78157134	    -48.15645278	      2.06326486	      0.00000000	      1.07610467	      0.00000000	     10.11764564	     -0.00000000	      0.00000000	      0.00000000	      0.00000000	      0.00000000	      0.00000000	      0.00000000	      0.00000000	      0.00000000	      0.00000000
      0.01400000	      2.67265032	   1919.91995369	    -48.79933687	      2.06190797	      0.00000000	      1.07634126	      0.00000000	      9.93383637	     -0.00000000	      0.00000000	      0.00000000	      0.00000000	      0.00000000	      0.00000000	      0.00000000	      0.00000000	      0.00000000	      0.00000000
      0.01500000	      5.11838052	   1912.97478768	    -49.42343532	      2.06053482	      0.00000000	      1.07657546	      0.00000000	      9.75232562	     -0.00000000	      0.00000000	      0.00000000	      0.00000000	      0.00000000	      0.00000000	      0.00000000	      0.00000000	      0.00000000	      0.00000000
      0.01600000	      7.56411072	   1906.02962166	    -50.04753377	      2.05916168	      0.00000000	      1.07680966	      0.00000000	      9.57081488	     -0.00000000	      0.00000000	      0.00000000	      0.00000000	      0.00000000	      0.00000000	      0.00000000	      0.00000000	      0.00000000	      0.00000000
      0.01700000	     10.05762734	   1898.97031864	    -50.64750353	      2.05776813	      0.00000000	      1.07704075	      0.00000000	      9.39183818	     -0.00000000	      0.00000000	      0.00000000	      0.00000000	      0.00000000	      0.00000000	      0.00000000	      0.00000000	      0.00000000	      0.00000000
      0.01800000	     12.64671676	   1891.68274159	    -51.19921590	      2.05633378	      0.00000000	      1.07726564	      0.00000000	      9.21792957	     -0.00000000	      0.00000000	      0.00000000	      0.00000000	      0.00000000	      0.00000000	      0.00000000	      0.00000000	      0.00000000	      0.00000000
      0.01900000	     15.23580618	   1884.39516454	    -51.75092828	      2.05489944	      0.00000000	      1.07749053	      0.00000000	      9.04402095	     -0.00000000	      0.00000000	      0.00000000	      0.00000000	      0.00000000	      0.00000000	      0.00000000	      0.00000000	      0.00000000	      0.00000000
      0.02000000	     17.82489560	   1877.10758750	    -52.30264065	      2.05346509	      0.00000000	      1.07771542	      0.00000000	      8.87011234	     -0.00000000	      0.00000000	      0.00000000	      0.00000000	      0.00000000	      0.00000000	      0.00000000	      0.00000000	      0.00000000	      0.00000000
      0.02100000	     20.56593169	   1869.38500661	    -52.76681647	      2.05195847	      0.00000000	      1.07792897	      0.00000000	      8.70410000	     -0.00000000	      0.00000000	      0.00000000	      0.00000000	      0.00000000	      0.00000000	      0.00000000	      0.00000000	      0.00000000	      0.00000000
      0.02200000	     23.30696778	   1861.66242572	    -53.23099228	      2.05045185	      0.00000000	      1.07814252	      0.00000000	      8.53808765	     -0.00000000	      0.00000000	      0.00000000	      0.00000000	      0.00000000	      0.00000000	      0.00000000	      0.00000000	      0.00000000	      0.00000000
      0.02300000	     26.04800386	   1853.93984483	    -53.69516810	      2.04894524	      0.00000000	      1.07835607	      0.00000000	      8.37207531	     -0.00000000	      0.00000000	      0.00000000	      0.00000000	      0.00000000	      0.00000000	      0.00000000	      0.00000000	      0.00000000	      0.00000000
      0.02400000	     28.89095878	   1845.86687011	    -54.09177983	      2.04738428	      0.00000000	      1.07856079	      0.00000000	      8.21124822	     -0.00000000	      0.00000000	      0.00000000	      0.00000000	      0.00000000	      0.00000000	      0.00000000	      0.00000000	      0.00000000	      0.00000000
      0.02500000	     31.78487312	   1837.61869846	    -54.45460953	      2.04579615	      0.00000000	      1.07876110	      0.00000000	      8.05301376	     -0.00000000	      0.00000000	      0.00000000	      0.00000000	      0.00000000	      0.00000000	      0.00000000	      0.00000000	      0.00000000	      0.00000000
      0.02600000	     34.67878746	   1829.37052681	    -54.81743923	      2.04420803	      0.00000000	      1.07896141	      0.00000000	      7.89477930	     -0.00000000	      0.00000000	      0.00000000	      0.00000000	      0.00000000	      0.00000000	      0.00000000	      0.00000000	      0.00000000	      0.00000000
      0.02700000	     37.62123846	   1820.91852718	    -55.14248217	      2.04259037	      0.00000000	      1.07915674	      0.00000000	      7.73896698	     -0.00000000	      0.00000000	      0.00000000	      0.00000000	      0.00000000	      0.00000000	      0.00000000	      0.00000000	      0.00000000	      0.00000000
      0.02800000	     40.66076280	   1812.05887159	    -55.39195159	      2.04091364	      0.00000000	      1.07934209	     -0.00000000	      7.58799896	     -0.00000000	      0.00000000	      0.00000000	      0.00000000	      0.00000000	      0.00000000	      0.00000000	      0.00000000	      0.00000000	      0.00000000
      0.02900000	     43.70028713	   1803.19921600	    -55.64142101	      2.03923692	      0.00000000	      1.07952744	     -0.00000000	      7.43703093	     -0.00000000	      0.00000000	      0.00000000	      0.00000000	      0.00000000	      0.00000000	      0.00000000	      0.00000000	      0.00000000	      0.00000000
      0.03000000	     46.73981147	   1794.33956040	    -55.89089043	      2.03756019	      0.00000000	      1.07971279	     -0.00000000	      7.28606290	     -0.00000000	      0.00000000	      0.00000000	      0.00000000	      0.00000000	      0.00000000	      0.00000000	      0.00000000	      0.00000000	      0.00000000
      0.03100000	     49.90931366	   1784.78972106	    -56.01719801	      2.03579015	      0.00000000	      1.07988172	     -0.00000000	      7.14149481	     -0.00000000	      0.00000000	      0.00000000	      0.00000000	      0.00000000	      0.00000000	      0.00000000	      0.00000000	      0.00000000	      0.00000000
      0.03200000	     53.07881586	   1775.23988171	    -56.14350560	      2.03402010	      0.00000000	      1.08005064	     -0.00000000	      6.99692673	     -0.00000000	      0.00000000	      0.00000000	      0.00000000	      0.00000000	      0.00000000	      0.00000000	      0.00000000	      0.00000000	      0.00000000
      0.03300000	     56.24831806	   1765.69004237	    -56.26981318	      2.03225006	      0.00000000	      1.08021957	     -0.00000000	      6.85235864	     -0.00000000	      0.00000000	      0.00000000	      0.00000000	      0.00000000	      0.00000000	      0.00000000	      0.00000000	      0.00000000	      0.00000000
      0.03400000	     59.48862253	   1755.63392930	    -56.30918813	      2.03041632	      0.00000000	      1.08037678	     -0.00000000	      6.71127915	     -0.00000000	      0.00000000	      0.00000000	      0.00000000	      0.00000000	      0.00000000	      0.00000000	      0.00000000	      0.00000000	      0.00000000
      0.03500000	     62.76432816	   1745.32467937	    -56.30509677	      2.02855073	      0.00000000	      1.08052812	     -0.00000000	      6.57194395	     -0.00000000	      0.00000000	      0.00000000	      0.00000000	      0.00000000	      0.00000000	      0.00000000	      0.00000000	      0.00000000	      0.00000000
      0.03600000	     66.04003378	   1735.01542944	    -56.30100541	      2.02668515	      0.00000000	      1.08067947	     -0.00000000	      6.43260875	     -0.00000000	      0.00000000	      0.00000000	      0.00000000	      0.00000000	      0.00000000	      0.00000000	      0.00000000	      0.00000000	      0.00000000
